<svg role="img" aria-hidden="true" focusable="false" xmlns="http://www.w3.org/2000/svg" viewBox="0 0 22.96 24"><g fill="#a61e69"><path d="M4.52 21.4c-1.82 0-3.31-1.48-3.31-3.31V7.3c0-1.82 1.48-3.31 3.31-3.31h8.52l.49-1.22H4.52A4.53 4.53 0 0 0 0 7.3v10.79c0 2.49 2.03 4.52 4.52 4.52h.04v-1.22h-.04ZM22.96 7.3c0-2.12-1.46-3.89-3.43-4.38l-.43 1.15c1.5.31 2.64 1.64 2.64 3.24v14.1h-9.31c-.23.43-.47.84-.73 1.22h11.26V7.3Z"/></g><path fill="#a61e69" d="m15.9 0-5.09 14.14-2.5-7.84H5.25l3.83 9.82c.35.91.35 1.92 0 2.83-.37.95-1.03 2.08-2.86 2.42h-.08v2.62h.11c1.53-.06 2.71-.57 3.73-1.59 1.03-1.04 1.92-2.65 2.79-5.08L19.22 0H15.9Z"/></svg>